<svg xmlns="http://www.w3.org/2000/svg" xmlns:xlink="http://www.w3.org/1999/xlink" version="1.1" data-diagram-type="MINDMAP" style="width:1341px;height:4693px;background:#FFFFFF;" width="1341px" height="4693px" viewBox="0 0 1341 4693" zoomAndPan="magnify" preserveAspectRatio="none" contentStyleType="text/css"><?plantuml 1.2026.8beta1?><defs/><g font-family="sans-serif" lengthAdjust="spacing"><rect x="10" y="2328.172" width="230.731" height="36.297" fill="#F1F1F1" style="stroke:#181818;stroke-width:1.5;" rx="12.5" ry="12.5"/><text x="20" y="2351.167" fill="#000" font-size="14" textLength="210.731">ゲーム会社（Game Company）</text><rect x="290.731" y="160.742" width="395.374" height="36.297" fill="#F1F1F1" style="stroke:#181818;stroke-width:1.5;" rx="12.5" ry="12.5"/><text x="300.731" y="183.737" fill="#000" font-size="14" textLength="375.374">01. 経営・コーポレート部門（Corporate Management）</text><rect x="736.105" y="20" width="238.743" height="36.297" fill="#F1F1F1" style="stroke:#181818;stroke-width:1.5;" rx="12.5" ry="12.5"/><text x="746.105" y="42.995" fill="#000" font-size="14" textLength="218.743">経営企画（Corporate Planning）</text><path d="M686.105,178.891 L696.105,178.891 C711.105,178.891 711.105,38.148 726.105,38.148 L736.105,38.148" style="stroke:#181818;stroke-width:1;" fill="none"/><rect x="736.105" y="76.297" width="341.992" height="36.297" fill="#F1F1F1" style="stroke:#181818;stroke-width:1.5;" rx="12.5" ry="12.5"/><text x="746.105" y="99.292" fill="#000" font-size="14" textLength="321.992">法務・コンプライアンス（Legal &amp; Compliance）</text><path d="M686.105,178.891 L696.105,178.891 C711.105,178.891 711.105,94.445 726.105,94.445 L736.105,94.445" style="stroke:#181818;stroke-width:1;" fill="none"/><rect x="736.105" y="132.594" width="270.817" height="36.297" fill="#F1F1F1" style="stroke:#181818;stroke-width:1.5;" rx="12.5" ry="12.5"/><text x="746.105" y="155.589" fill="#000" font-size="14" textLength="250.817">財務・会計（Finance &amp; Accounting）</text><path d="M686.105,178.891 L696.105,178.891 C711.105,178.891 711.105,150.742 726.105,150.742 L736.105,150.742" style="stroke:#181818;stroke-width:1;" fill="none"/><rect x="736.105" y="188.891" width="203.374" height="36.297" fill="#F1F1F1" style="stroke:#181818;stroke-width:1.5;" rx="12.5" ry="12.5"/><text x="746.105" y="211.886" fill="#000" font-size="14" textLength="183.374">人事（Human Resources）</text><path d="M686.105,178.891 L696.105,178.891 C711.105,178.891 711.105,207.039 726.105,207.039 L736.105,207.039" style="stroke:#181818;stroke-width:1;" fill="none"/><rect x="736.105" y="245.188" width="180.576" height="36.297" fill="#F1F1F1" style="stroke:#181818;stroke-width:1.5;" rx="12.5" ry="12.5"/><text x="746.105" y="268.183" fill="#000" font-size="14" textLength="160.576">総務（General Affairs）</text><path d="M686.105,178.891 L696.105,178.891 C711.105,178.891 711.105,263.336 726.105,263.336 L736.105,263.336" style="stroke:#181818;stroke-width:1;" fill="none"/><rect x="736.105" y="301.484" width="175.798" height="36.297" fill="#F1F1F1" style="stroke:#181818;stroke-width:1.5;" rx="12.5" ry="12.5"/><text x="746.105" y="324.479" fill="#000" font-size="14" textLength="155.798">社内IT（Corporate IT）</text><path d="M686.105,178.891 L696.105,178.891 C711.105,178.891 711.105,319.633 726.105,319.633 L736.105,319.633" style="stroke:#181818;stroke-width:1;" fill="none"/><path d="M240.731,2346.32 L250.731,2346.32 C265.731,2346.32 265.731,178.891 280.731,178.891 L290.731,178.891" style="stroke:#181818;stroke-width:1;" fill="none"/><rect x="290.731" y="385.93" width="226.424" height="36.297" fill="#F1F1F1" style="stroke:#181818;stroke-width:1.5;" rx="12.5" ry="12.5"/><text x="300.731" y="408.925" fill="#000" font-size="14" textLength="206.424">02. プロダクト部門（Product）</text><rect x="567.155" y="357.781" width="321.526" height="36.297" fill="#F1F1F1" style="stroke:#181818;stroke-width:1.5;" rx="12.5" ry="12.5"/><text x="577.155" y="380.776" fill="#000" font-size="14" textLength="301.526">プロダクトマネージャー（Product Manager）</text><path d="M517.155,404.078 L527.155,404.078 C542.155,404.078 542.155,375.93 557.155,375.93 L567.155,375.93" style="stroke:#181818;stroke-width:1;" fill="none"/><rect x="567.155" y="414.078" width="316.706" height="36.297" fill="#F1F1F1" style="stroke:#181818;stroke-width:1.5;" rx="12.5" ry="12.5"/><text x="577.155" y="437.073" fill="#000" font-size="14" textLength="296.706">プロダクトディレクター（Product Director）</text><path d="M517.155,404.078 L527.155,404.078 C542.155,404.078 542.155,432.227 557.155,432.227 L567.155,432.227" style="stroke:#181818;stroke-width:1;" fill="none"/><path d="M240.731,2346.32 L250.731,2346.32 C265.731,2346.32 265.731,404.078 280.731,404.078 L290.731,404.078" style="stroke:#181818;stroke-width:1;" fill="none"/><rect x="290.731" y="498.523" width="359.841" height="36.297" fill="#F1F1F1" style="stroke:#181818;stroke-width:1.5;" rx="12.5" ry="12.5"/><text x="300.731" y="521.519" fill="#000" font-size="14" textLength="339.841">03. プロジェクト管理部門（Project Management）</text><rect x="700.572" y="470.375" width="330.269" height="36.297" fill="#F1F1F1" style="stroke:#181818;stroke-width:1.5;" rx="12.5" ry="12.5"/><text x="710.572" y="493.37" fill="#000" font-size="14" textLength="310.269">プロジェクトマネージャー（Project Manager）</text><path d="M650.572,516.672 L660.572,516.672 C675.572,516.672 675.572,488.523 690.572,488.523 L700.572,488.523" style="stroke:#181818;stroke-width:1;" fill="none"/><rect x="700.572" y="526.672" width="379.604" height="36.297" fill="#F1F1F1" style="stroke:#181818;stroke-width:1.5;" rx="12.5" ry="12.5"/><text x="710.572" y="549.667" fill="#000" font-size="14" textLength="359.604">プロジェクトコーディネーター（Project Coordinator）</text><path d="M650.572,516.672 L660.572,516.672 C675.572,516.672 675.572,544.82 690.572,544.82 L700.572,544.82" style="stroke:#181818;stroke-width:1;" fill="none"/><path d="M240.731,2346.32 L250.731,2346.32 C265.731,2346.32 265.731,516.672 280.731,516.672 L290.731,516.672" style="stroke:#181818;stroke-width:1;" fill="none"/><rect x="290.731" y="751.859" width="337.18" height="36.297" fill="#F1F1F1" style="stroke:#181818;stroke-width:1.5;" rx="12.5" ry="12.5"/><text x="300.731" y="774.854" fill="#000" font-size="14" textLength="317.18">04. ゲーム企画・デザイン部門（Game Design）</text><rect x="677.911" y="582.969" width="268.834" height="36.297" fill="#F1F1F1" style="stroke:#181818;stroke-width:1.5;" rx="12.5" ry="12.5"/><text x="687.911" y="605.964" fill="#000" font-size="14" textLength="248.834">ゲームデザイナー（Game Designer）</text><path d="M627.911,770.008 L637.911,770.008 C652.911,770.008 652.911,601.117 667.911,601.117 L677.911,601.117" style="stroke:#181818;stroke-width:1;" fill="none"/><rect x="677.911" y="639.266" width="293.362" height="36.297" fill="#F1F1F1" style="stroke:#181818;stroke-width:1.5;" rx="12.5" ry="12.5"/><text x="687.911" y="662.261" fill="#000" font-size="14" textLength="273.362">システムデザイナー（System Designer）</text><path d="M627.911,770.008 L637.911,770.008 C652.911,770.008 652.911,657.414 667.911,657.414 L677.911,657.414" style="stroke:#181818;stroke-width:1;" fill="none"/><rect x="677.911" y="695.563" width="264.357" height="36.297" fill="#F1F1F1" style="stroke:#181818;stroke-width:1.5;" rx="12.5" ry="12.5"/><text x="687.911" y="718.558" fill="#000" font-size="14" textLength="244.357">レベルデザイナー（Level Designer）</text><path d="M627.911,770.008 L637.911,770.008 C652.911,770.008 652.911,713.711 667.911,713.711 L677.911,713.711" style="stroke:#181818;stroke-width:1;" fill="none"/><rect x="677.911" y="751.859" width="268.821" height="36.297" fill="#F1F1F1" style="stroke:#181818;stroke-width:1.5;" rx="12.5" ry="12.5"/><text x="687.911" y="774.854" fill="#000" font-size="14" textLength="248.821">バトルデザイナー（Battle Designer）</text><path d="M627.911,770.008 L637.911,770.008 C652.911,770.008 652.911,770.008 667.911,770.008 L677.911,770.008" style="stroke:#181818;stroke-width:1;" fill="none"/><rect x="677.911" y="808.156" width="319.625" height="36.297" fill="#F1F1F1" style="stroke:#181818;stroke-width:1.5;" rx="12.5" ry="12.5"/><text x="687.911" y="831.151" fill="#000" font-size="14" textLength="299.625">エコノミーデザイナー（Economy Designer）</text><path d="M627.911,770.008 L637.911,770.008 C652.911,770.008 652.911,826.305 667.911,826.305 L677.911,826.305" style="stroke:#181818;stroke-width:1;" fill="none"/><rect x="677.911" y="864.453" width="320.575" height="36.297" fill="#F1F1F1" style="stroke:#181818;stroke-width:1.5;" rx="12.5" ry="12.5"/><text x="687.911" y="887.448" fill="#000" font-size="14" textLength="300.575">ナラティブデザイナー（Narrative Designer）</text><path d="M627.911,770.008 L637.911,770.008 C652.911,770.008 652.911,882.602 667.911,882.602 L677.911,882.602" style="stroke:#181818;stroke-width:1;" fill="none"/><rect x="677.911" y="920.75" width="321.82" height="36.297" fill="#F1F1F1" style="stroke:#181818;stroke-width:1.5;" rx="12.5" ry="12.5"/><text x="687.911" y="943.745" fill="#000" font-size="14" textLength="301.82">テクニカルデザイナー（Technical Designer）</text><path d="M627.911,770.008 L637.911,770.008 C652.911,770.008 652.911,938.898 667.911,938.898 L677.911,938.898" style="stroke:#181818;stroke-width:1;" fill="none"/><path d="M240.731,2346.32 L250.731,2346.32 C265.731,2346.32 265.731,770.008 280.731,770.008 L290.731,770.008" style="stroke:#181818;stroke-width:1;" fill="none"/><rect x="290.731" y="1230.383" width="239.03" height="36.297" fill="#F1F1F1" style="stroke:#181818;stroke-width:1.5;" rx="12.5" ry="12.5"/><text x="300.731" y="1253.378" fill="#000" font-size="14" textLength="219.03">05. アート・UX部門（Art &amp; UX）</text><rect x="579.761" y="977.047" width="255.819" height="36.297" fill="#F1F1F1" style="stroke:#181818;stroke-width:1.5;" rx="12.5" ry="12.5"/><text x="589.761" y="1000.042" fill="#000" font-size="14" textLength="235.819">アートディレクター（Art Director）</text><path d="M529.761,1248.531 L539.761,1248.531 C554.761,1248.531 554.761,995.195 569.761,995.195 L579.761,995.195" style="stroke:#181818;stroke-width:1;" fill="none"/><rect x="579.761" y="1033.344" width="301.845" height="36.297" fill="#F1F1F1" style="stroke:#181818;stroke-width:1.5;" rx="12.5" ry="12.5"/><text x="589.761" y="1056.339" fill="#000" font-size="14" textLength="281.845">コンセプトアーティスト（Concept Artist）</text><path d="M529.761,1248.531 L539.761,1248.531 C554.761,1248.531 554.761,1051.492 569.761,1051.492 L579.761,1051.492" style="stroke:#181818;stroke-width:1;" fill="none"/><rect x="579.761" y="1089.641" width="327.063" height="36.297" fill="#F1F1F1" style="stroke:#181818;stroke-width:1.5;" rx="12.5" ry="12.5"/><text x="589.761" y="1112.636" fill="#000" font-size="14" textLength="307.063">キャラクターアーティスト（Character Artist）</text><path d="M529.761,1248.531 L539.761,1248.531 C554.761,1248.531 554.761,1107.789 569.761,1107.789 L579.761,1107.789" style="stroke:#181818;stroke-width:1;" fill="none"/><rect x="579.761" y="1145.938" width="291.646" height="36.297" fill="#F1F1F1" style="stroke:#181818;stroke-width:1.5;" rx="12.5" ry="12.5"/><text x="589.761" y="1168.933" fill="#000" font-size="14" textLength="271.646">環境アーティスト（Environment Artist）</text><path d="M529.761,1248.531 L539.761,1248.531 C554.761,1248.531 554.761,1164.086 569.761,1164.086 L579.761,1164.086" style="stroke:#181818;stroke-width:1;" fill="none"/><rect x="579.761" y="1202.234" width="253.146" height="36.297" fill="#F1F1F1" style="stroke:#181818;stroke-width:1.5;" rx="12.5" ry="12.5"/><text x="589.761" y="1225.229" fill="#000" font-size="14" textLength="233.146">レベルアーティスト（Level Artist）</text><path d="M529.761,1248.531 L539.761,1248.531 C554.761,1248.531 554.761,1220.383 569.761,1220.383 L579.761,1220.383" style="stroke:#181818;stroke-width:1;" fill="none"/><rect x="579.761" y="1258.531" width="202.697" height="36.297" fill="#F1F1F1" style="stroke:#181818;stroke-width:1.5;" rx="12.5" ry="12.5"/><text x="589.761" y="1281.526" fill="#000" font-size="14" textLength="182.697">UIアーティスト（UI Artist）</text><path d="M529.761,1248.531 L539.761,1248.531 C554.761,1248.531 554.761,1276.68 569.761,1276.68 L579.761,1276.68" style="stroke:#181818;stroke-width:1;" fill="none"/><rect x="579.761" y="1314.828" width="224.832" height="36.297" fill="#F1F1F1" style="stroke:#181818;stroke-width:1.5;" rx="12.5" ry="12.5"/><text x="589.761" y="1337.823" fill="#000" font-size="14" textLength="204.832">UXデザイナー（UX Designer）</text><path d="M529.761,1248.531 L539.761,1248.531 C554.761,1248.531 554.761,1332.977 569.761,1332.977 L579.761,1332.977" style="stroke:#181818;stroke-width:1;" fill="none"/><rect x="579.761" y="1371.125" width="196.367" height="36.297" fill="#F1F1F1" style="stroke:#181818;stroke-width:1.5;" rx="12.5" ry="12.5"/><text x="589.761" y="1394.12" fill="#000" font-size="14" textLength="176.367">アニメーター（Animator）</text><path d="M529.761,1248.531 L539.761,1248.531 C554.761,1248.531 554.761,1389.273 569.761,1389.273 L579.761,1389.273" style="stroke:#181818;stroke-width:1;" fill="none"/><rect x="579.761" y="1427.422" width="228.386" height="36.297" fill="#F1F1F1" style="stroke:#181818;stroke-width:1.5;" rx="12.5" ry="12.5"/><text x="589.761" y="1450.417" fill="#000" font-size="14" textLength="208.386">VFXアーティスト（VFX Artist）</text><path d="M529.761,1248.531 L539.761,1248.531 C554.761,1248.531 554.761,1445.57 569.761,1445.57 L579.761,1445.57" style="stroke:#181818;stroke-width:1;" fill="none"/><rect x="579.761" y="1483.719" width="310.609" height="36.297" fill="#F1F1F1" style="stroke:#181818;stroke-width:1.5;" rx="12.5" ry="12.5"/><text x="589.761" y="1506.714" fill="#000" font-size="14" textLength="290.609">テクニカルアーティスト（Technical Artist）</text><path d="M529.761,1248.531 L539.761,1248.531 C554.761,1248.531 554.761,1501.867 569.761,1501.867 L579.761,1501.867" style="stroke:#181818;stroke-width:1;" fill="none"/><path d="M240.731,2346.32 L250.731,2346.32 C265.731,2346.32 265.731,1248.531 280.731,1248.531 L290.731,1248.531" style="stroke:#181818;stroke-width:1;" fill="none"/><rect x="290.731" y="1708.906" width="343.695" height="36.297" fill="#F1F1F1" style="stroke:#181818;stroke-width:1.5;" rx="12.5" ry="12.5"/><text x="300.731" y="1731.901" fill="#000" font-size="14" textLength="323.695">06. クライアント開発部門（Client Engineering）</text><rect x="684.426" y="1540.016" width="340.119" height="36.297" fill="#F1F1F1" style="stroke:#181818;stroke-width:1.5;" rx="12.5" ry="12.5"/><text x="694.426" y="1563.011" fill="#000" font-size="14" textLength="320.119">ゲームプレイエンジニア（Gameplay Engineer）</text><path d="M634.426,1727.055 L644.426,1727.055 C659.426,1727.055 659.426,1558.164 674.426,1558.164 L684.426,1558.164" style="stroke:#181818;stroke-width:1;" fill="none"/><rect x="684.426" y="1596.313" width="213.552" height="36.297" fill="#F1F1F1" style="stroke:#181818;stroke-width:1.5;" rx="12.5" ry="12.5"/><text x="694.426" y="1619.308" fill="#000" font-size="14" textLength="193.552">UIエンジニア（UI Engineer）</text><path d="M634.426,1727.055 L644.426,1727.055 C659.426,1727.055 659.426,1614.461 674.426,1614.461 L684.426,1614.461" style="stroke:#181818;stroke-width:1;" fill="none"/><rect x="684.426" y="1652.609" width="344.624" height="36.297" fill="#F1F1F1" style="stroke:#181818;stroke-width:1.5;" rx="12.5" ry="12.5"/><text x="694.426" y="1675.604" fill="#000" font-size="14" textLength="324.624">グラフィックスエンジニア（Graphics Engineer）</text><path d="M634.426,1727.055 L644.426,1727.055 C659.426,1727.055 659.426,1670.758 674.426,1670.758 L684.426,1670.758" style="stroke:#181818;stroke-width:1;" fill="none"/><rect x="684.426" y="1708.906" width="294.592" height="36.297" fill="#F1F1F1" style="stroke:#181818;stroke-width:1.5;" rx="12.5" ry="12.5"/><text x="694.426" y="1731.901" fill="#000" font-size="14" textLength="274.592">オーディオエンジニア（Audio Engineer）</text><path d="M634.426,1727.055 L644.426,1727.055 C659.426,1727.055 659.426,1727.055 674.426,1727.055 L684.426,1727.055" style="stroke:#181818;stroke-width:1;" fill="none"/><rect x="684.426" y="1765.203" width="263.666" height="36.297" fill="#F1F1F1" style="stroke:#181818;stroke-width:1.5;" rx="12.5" ry="12.5"/><text x="694.426" y="1788.198" fill="#000" font-size="14" textLength="243.666">ツールエンジニア（Tools Engineer）</text><path d="M634.426,1727.055 L644.426,1727.055 C659.426,1727.055 659.426,1783.352 674.426,1783.352 L684.426,1783.352" style="stroke:#181818;stroke-width:1;" fill="none"/><rect x="684.426" y="1821.5" width="372.262" height="36.297" fill="#F1F1F1" style="stroke:#181818;stroke-width:1.5;" rx="12.5" ry="12.5"/><text x="694.426" y="1844.495" fill="#000" font-size="14" textLength="352.262">パフォーマンスエンジニア（Performance Engineer）</text><path d="M634.426,1727.055 L644.426,1727.055 C659.426,1727.055 659.426,1839.648 674.426,1839.648 L684.426,1839.648" style="stroke:#181818;stroke-width:1;" fill="none"/><rect x="684.426" y="1877.797" width="437.682" height="36.297" fill="#F1F1F1" style="stroke:#181818;stroke-width:1.5;" rx="12.5" ry="12.5"/><text x="694.426" y="1900.792" fill="#000" font-size="14" textLength="417.682">プラットフォームエンジニア（Platform Integration Engineer）</text><path d="M634.426,1727.055 L644.426,1727.055 C659.426,1727.055 659.426,1895.945 674.426,1895.945 L684.426,1895.945" style="stroke:#181818;stroke-width:1;" fill="none"/><path d="M240.731,2346.32 L250.731,2346.32 C265.731,2346.32 265.731,1727.055 280.731,1727.055 L290.731,1727.055" style="stroke:#181818;stroke-width:1;" fill="none"/><rect x="290.731" y="1990.391" width="470.932" height="36.297" fill="#F1F1F1" style="stroke:#181818;stroke-width:1.5;" rx="12.5" ry="12.5"/><text x="300.731" y="2013.386" fill="#000" font-size="14" textLength="450.932">07. ゲームサーバー・バックエンド部門（Game Server &amp; Backend）</text><rect x="811.663" y="1934.094" width="374.839" height="36.297" fill="#F1F1F1" style="stroke:#181818;stroke-width:1.5;" rx="12.5" ry="12.5"/><text x="821.663" y="1957.089" fill="#000" font-size="14" textLength="354.839">ゲームサーバーエンジニア（Game Server Engineer）</text><path d="M761.663,2008.539 L771.663,2008.539 C786.663,2008.539 786.663,1952.242 801.663,1952.242 L811.663,1952.242" style="stroke:#181818;stroke-width:1;" fill="none"/><rect x="811.663" y="1990.391" width="329.161" height="36.297" fill="#F1F1F1" style="stroke:#181818;stroke-width:1.5;" rx="12.5" ry="12.5"/><text x="821.663" y="2013.386" fill="#000" font-size="14" textLength="309.161">バックエンドエンジニア（Backend Engineer）</text><path d="M761.663,2008.539 L771.663,2008.539 C786.663,2008.539 786.663,2008.539 801.663,2008.539 L811.663,2008.539" style="stroke:#181818;stroke-width:1;" fill="none"/><rect x="811.663" y="2046.688" width="335.601" height="36.297" fill="#F1F1F1" style="stroke:#181818;stroke-width:1.5;" rx="12.5" ry="12.5"/><text x="821.663" y="2069.683" fill="#000" font-size="14" textLength="315.601">データベースエンジニア（Database Engineer）</text><path d="M761.663,2008.539 L771.663,2008.539 C786.663,2008.539 786.663,2064.836 801.663,2064.836 L811.663,2064.836" style="stroke:#181818;stroke-width:1;" fill="none"/><path d="M240.731,2346.32 L250.731,2346.32 C265.731,2346.32 265.731,2008.539 280.731,2008.539 L290.731,2008.539" style="stroke:#181818;stroke-width:1;" fill="none"/><rect x="290.731" y="2243.727" width="459.926" height="36.297" fill="#F1F1F1" style="stroke:#181818;stroke-width:1.5;" rx="12.5" ry="12.5"/><text x="300.731" y="2266.722" fill="#000" font-size="14" textLength="439.926">08. インフラ・プラットフォーム部門（Infrastructure &amp; Platform）</text><rect x="800.657" y="2102.984" width="336.907" height="36.297" fill="#F1F1F1" style="stroke:#181818;stroke-width:1.5;" rx="12.5" ry="12.5"/><text x="810.657" y="2125.979" fill="#000" font-size="14" textLength="316.907">インフラエンジニア（Infrastructure Engineer）</text><path d="M750.657,2261.875 L760.657,2261.875 C775.657,2261.875 775.657,2121.133 790.657,2121.133 L800.657,2121.133" style="stroke:#181818;stroke-width:1;" fill="none"/><rect x="800.657" y="2159.281" width="280.79" height="36.297" fill="#F1F1F1" style="stroke:#181818;stroke-width:1.5;" rx="12.5" ry="12.5"/><text x="810.657" y="2182.276" fill="#000" font-size="14" textLength="260.79">クラウドエンジニア（Cloud Engineer）</text><path d="M750.657,2261.875 L760.657,2261.875 C775.657,2261.875 775.657,2177.43 790.657,2177.43 L800.657,2177.43" style="stroke:#181818;stroke-width:1;" fill="none"/><rect x="800.657" y="2215.578" width="327.254" height="36.297" fill="#F1F1F1" style="stroke:#181818;stroke-width:1.5;" rx="12.5" ry="12.5"/><text x="810.657" y="2238.573" fill="#000" font-size="14" textLength="307.254">ネットワークエンジニア（Network Engineer）</text><path d="M750.657,2261.875 L760.657,2261.875 C775.657,2261.875 775.657,2233.727 790.657,2233.727 L800.657,2233.727" style="stroke:#181818;stroke-width:1;" fill="none"/><rect x="800.657" y="2271.875" width="294.558" height="36.297" fill="#F1F1F1" style="stroke:#181818;stroke-width:1.5;" rx="12.5" ry="12.5"/><text x="810.657" y="2294.87" fill="#000" font-size="14" textLength="274.558">DevOpsエンジニア（DevOps Engineer）</text><path d="M750.657,2261.875 L760.657,2261.875 C775.657,2261.875 775.657,2290.023 790.657,2290.023 L800.657,2290.023" style="stroke:#181818;stroke-width:1;" fill="none"/><rect x="800.657" y="2328.172" width="312.619" height="36.297" fill="#F1F1F1" style="stroke:#181818;stroke-width:1.5;" rx="12.5" ry="12.5"/><text x="810.657" y="2351.167" fill="#000" font-size="14" textLength="292.619">SREエンジニア（Site Reliability Engineer）</text><path d="M750.657,2261.875 L760.657,2261.875 C775.657,2261.875 775.657,2346.32 790.657,2346.32 L800.657,2346.32" style="stroke:#181818;stroke-width:1;" fill="none"/><rect x="800.657" y="2384.469" width="356.088" height="36.297" fill="#F1F1F1" style="stroke:#181818;stroke-width:1.5;" rx="12.5" ry="12.5"/><text x="810.657" y="2407.464" fill="#000" font-size="14" textLength="336.088">プラットフォームエンジニア（Platform Engineer）</text><path d="M750.657,2261.875 L760.657,2261.875 C775.657,2261.875 775.657,2402.617 790.657,2402.617 L800.657,2402.617" style="stroke:#181818;stroke-width:1;" fill="none"/><path d="M240.731,2346.32 L250.731,2346.32 C265.731,2346.32 265.731,2261.875 280.731,2261.875 L290.731,2261.875" style="stroke:#181818;stroke-width:1;" fill="none"/><rect x="290.731" y="2665.953" width="239.372" height="36.297" fill="#F1F1F1" style="stroke:#181818;stroke-width:1.5;" rx="12.5" ry="12.5"/><text x="300.731" y="2688.948" fill="#000" font-size="14" textLength="219.372">09. データ・AI部門（Data &amp; AI）</text><rect x="580.103" y="2440.766" width="260.228" height="36.297" fill="#F1F1F1" style="stroke:#181818;stroke-width:1.5;" rx="12.5" ry="12.5"/><text x="590.103" y="2463.761" fill="#000" font-size="14" textLength="240.228">データエンジニア（Data Engineer）</text><path d="M530.103,2684.102 L540.103,2684.102 C555.103,2684.102 555.103,2458.914 570.103,2458.914 L580.103,2458.914" style="stroke:#181818;stroke-width:1;" fill="none"/><rect x="580.103" y="2497.063" width="249.865" height="36.297" fill="#F1F1F1" style="stroke:#181818;stroke-width:1.5;" rx="12.5" ry="12.5"/><text x="590.103" y="2520.058" fill="#000" font-size="14" textLength="229.865">データアナリスト（Data Analyst）</text><path d="M530.103,2684.102 L540.103,2684.102 C555.103,2684.102 555.103,2515.211 570.103,2515.211 L580.103,2515.211" style="stroke:#181818;stroke-width:1;" fill="none"/><rect x="580.103" y="2553.359" width="299.999" height="36.297" fill="#F1F1F1" style="stroke:#181818;stroke-width:1.5;" rx="12.5" ry="12.5"/><text x="590.103" y="2576.354" fill="#000" font-size="14" textLength="279.999">データサイエンティスト（Data Scientist）</text><path d="M530.103,2684.102 L540.103,2684.102 C555.103,2684.102 555.103,2571.508 570.103,2571.508 L580.103,2571.508" style="stroke:#181818;stroke-width:1;" fill="none"/><rect x="580.103" y="2609.656" width="365.125" height="36.297" fill="#F1F1F1" style="stroke:#181818;stroke-width:1.5;" rx="12.5" ry="12.5"/><text x="590.103" y="2632.651" fill="#000" font-size="14" textLength="345.125">機械学習エンジニア（Machine Learning Engineer）</text><path d="M530.103,2684.102 L540.103,2684.102 C555.103,2684.102 555.103,2627.805 570.103,2627.805 L580.103,2627.805" style="stroke:#181818;stroke-width:1;" fill="none"/><rect x="580.103" y="2665.953" width="212.212" height="36.297" fill="#F1F1F1" style="stroke:#181818;stroke-width:1.5;" rx="12.5" ry="12.5"/><text x="590.103" y="2688.948" fill="#000" font-size="14" textLength="192.212">AIエンジニア（AI Engineer）</text><path d="M530.103,2684.102 L540.103,2684.102 C555.103,2684.102 555.103,2684.102 570.103,2684.102 L580.103,2684.102" style="stroke:#181818;stroke-width:1;" fill="none"/><rect x="580.103" y="2722.25" width="400.296" height="36.297" fill="#F1F1F1" style="stroke:#181818;stroke-width:1.5;" rx="12.5" ry="12.5"/><text x="590.103" y="2745.245" fill="#000" font-size="14" textLength="380.296">MLプラットフォームエンジニア（ML Platform Engineer）</text><path d="M530.103,2684.102 L540.103,2684.102 C555.103,2684.102 555.103,2740.398 570.103,2740.398 L580.103,2740.398" style="stroke:#181818;stroke-width:1;" fill="none"/><rect x="580.103" y="2778.547" width="274.959" height="36.297" fill="#F1F1F1" style="stroke:#181818;stroke-width:1.5;" rx="12.5" ry="12.5"/><text x="590.103" y="2801.542" fill="#000" font-size="14" textLength="254.959">データアーキテクト（Data Architect）</text><path d="M530.103,2684.102 L540.103,2684.102 C555.103,2684.102 555.103,2796.695 570.103,2796.695 L580.103,2796.695" style="stroke:#181818;stroke-width:1;" fill="none"/><rect x="580.103" y="2834.844" width="243.384" height="36.297" fill="#F1F1F1" style="stroke:#181818;stroke-width:1.5;" rx="12.5" ry="12.5"/><text x="590.103" y="2857.839" fill="#000" font-size="14" textLength="223.384">AIリサーチャー（AI Researcher）</text><path d="M530.103,2684.102 L540.103,2684.102 C555.103,2684.102 555.103,2852.992 570.103,2852.992 L580.103,2852.992" style="stroke:#181818;stroke-width:1;" fill="none"/><rect x="580.103" y="2891.141" width="452.146" height="36.297" fill="#F1F1F1" style="stroke:#181818;stroke-width:1.5;" rx="12.5" ry="12.5"/><text x="590.103" y="2914.136" fill="#000" font-size="14" textLength="432.146">データガバナンススペシャリスト（Data Governance Specialist）</text><path d="M530.103,2684.102 L540.103,2684.102 C555.103,2684.102 555.103,2909.289 570.103,2909.289 L580.103,2909.289" style="stroke:#181818;stroke-width:1;" fill="none"/><path d="M240.731,2346.32 L250.731,2346.32 C265.731,2346.32 265.731,2684.102 280.731,2684.102 L290.731,2684.102" style="stroke:#181818;stroke-width:1;" fill="none"/><rect x="290.731" y="3144.477" width="319.215" height="36.297" fill="#F1F1F1" style="stroke:#181818;stroke-width:1.5;" rx="12.5" ry="12.5"/><text x="300.731" y="3167.472" fill="#000" font-size="14" textLength="299.215">10. QA・セキュリティ部門（QA &amp; Security）</text><rect x="659.946" y="2947.438" width="225.994" height="36.297" fill="#F1F1F1" style="stroke:#181818;stroke-width:1.5;" rx="12.5" ry="12.5"/><text x="669.946" y="2970.433" fill="#000" font-size="14" textLength="205.994">QAエンジニア（QA Engineer）</text><path d="M609.946,3162.625 L619.946,3162.625 C634.946,3162.625 634.946,2965.586 649.946,2965.586 L659.946,2965.586" style="stroke:#181818;stroke-width:1;" fill="none"/><rect x="659.946" y="3003.734" width="384.737" height="36.297" fill="#F1F1F1" style="stroke:#181818;stroke-width:1.5;" rx="12.5" ry="12.5"/><text x="669.946" y="3026.729" fill="#000" font-size="14" textLength="364.737">テスト自動化エンジニア（Test Automation Engineer）</text><path d="M609.946,3162.625 L619.946,3162.625 C634.946,3162.625 634.946,3021.883 649.946,3021.883 L659.946,3021.883" style="stroke:#181818;stroke-width:1;" fill="none"/><rect x="659.946" y="3060.031" width="252.462" height="36.297" fill="#F1F1F1" style="stroke:#181818;stroke-width:1.5;" rx="12.5" ry="12.5"/><text x="669.946" y="3083.026" fill="#000" font-size="14" textLength="232.462">品質アナリスト（Quality Analyst）</text><path d="M609.946,3162.625 L619.946,3162.625 C634.946,3162.625 634.946,3078.18 649.946,3078.18 L659.946,3078.18" style="stroke:#181818;stroke-width:1;" fill="none"/><rect x="659.946" y="3116.328" width="326.29" height="36.297" fill="#F1F1F1" style="stroke:#181818;stroke-width:1.5;" rx="12.5" ry="12.5"/><text x="669.946" y="3139.323" fill="#000" font-size="14" textLength="306.29">セキュリティエンジニア（Security Engineer）</text><path d="M609.946,3162.625 L619.946,3162.625 C634.946,3162.625 634.946,3134.477 649.946,3134.477 L659.946,3134.477" style="stroke:#181818;stroke-width:1;" fill="none"/><rect x="659.946" y="3172.625" width="472.73" height="36.297" fill="#F1F1F1" style="stroke:#181818;stroke-width:1.5;" rx="12.5" ry="12.5"/><text x="669.946" y="3195.62" fill="#000" font-size="14" textLength="452.73">脆弱性管理スペシャリスト（Vulnerability Management Specialist）</text><path d="M609.946,3162.625 L619.946,3162.625 C634.946,3162.625 634.946,3190.773 649.946,3190.773 L659.946,3190.773" style="stroke:#181818;stroke-width:1;" fill="none"/><rect x="659.946" y="3228.922" width="343.011" height="36.297" fill="#F1F1F1" style="stroke:#181818;stroke-width:1.5;" rx="12.5" ry="12.5"/><text x="669.946" y="3251.917" fill="#000" font-size="14" textLength="323.011">アンチチートエンジニア（Anti-Cheat Engineer）</text><path d="M609.946,3162.625 L619.946,3162.625 C634.946,3162.625 634.946,3247.07 649.946,3247.07 L659.946,3247.07" style="stroke:#181818;stroke-width:1;" fill="none"/><rect x="659.946" y="3285.219" width="393.563" height="36.297" fill="#F1F1F1" style="stroke:#181818;stroke-width:1.5;" rx="12.5" ry="12.5"/><text x="669.946" y="3308.214" fill="#000" font-size="14" textLength="373.563">不正対策スペシャリスト（Fraud Prevention Specialist）</text><path d="M609.946,3162.625 L619.946,3162.625 C634.946,3162.625 634.946,3303.367 649.946,3303.367 L659.946,3303.367" style="stroke:#181818;stroke-width:1;" fill="none"/><rect x="659.946" y="3341.516" width="319.735" height="36.297" fill="#F1F1F1" style="stroke:#181818;stroke-width:1.5;" rx="12.5" ry="12.5"/><text x="669.946" y="3364.511" fill="#000" font-size="14" textLength="299.735">プライバシーエンジニア（Privacy Engineer）</text><path d="M609.946,3162.625 L619.946,3162.625 C634.946,3162.625 634.946,3359.664 649.946,3359.664 L659.946,3359.664" style="stroke:#181818;stroke-width:1;" fill="none"/><path d="M240.731,2346.32 L250.731,2346.32 C265.731,2346.32 265.731,3162.625 280.731,3162.625 L290.731,3162.625" style="stroke:#181818;stroke-width:1;" fill="none"/><rect x="290.731" y="3566.703" width="467.63" height="36.297" fill="#F1F1F1" style="stroke:#181818;stroke-width:1.5;" rx="12.5" ry="12.5"/><text x="300.731" y="3589.698" fill="#000" font-size="14" textLength="447.63">11. ゲーム運営・カスタマー部門（Game Operations &amp; Customer）</text><rect x="808.361" y="3397.813" width="340.66" height="36.297" fill="#F1F1F1" style="stroke:#181818;stroke-width:1.5;" rx="12.5" ry="12.5"/><text x="818.361" y="3420.808" fill="#000" font-size="14" textLength="320.66">ゲーム運営担当（Game Operations Specialist）</text><path d="M758.361,3584.852 L768.361,3584.852 C783.361,3584.852 783.361,3415.961 798.361,3415.961 L808.361,3415.961" style="stroke:#181818;stroke-width:1;" fill="none"/><rect x="808.361" y="3454.109" width="439.76" height="36.297" fill="#F1F1F1" style="stroke:#181818;stroke-width:1.5;" rx="12.5" ry="12.5"/><text x="818.361" y="3477.104" fill="#000" font-size="14" textLength="419.76">ライブサービス運営担当（Live Service Operations Specialist）</text><path d="M758.361,3584.852 L768.361,3584.852 C783.361,3584.852 783.361,3472.258 798.361,3472.258 L808.361,3472.258" style="stroke:#181818;stroke-width:1;" fill="none"/><rect x="808.361" y="3510.406" width="512.583" height="36.297" fill="#F1F1F1" style="stroke:#181818;stroke-width:1.5;" rx="12.5" ry="12.5"/><text x="818.361" y="3533.401" fill="#000" font-size="14" textLength="492.583">イベント・コンテンツ運営担当（Event &amp; Content Operations Specialist）</text><path d="M758.361,3584.852 L768.361,3584.852 C783.361,3584.852 783.361,3528.555 798.361,3528.555 L808.361,3528.555" style="stroke:#181818;stroke-width:1;" fill="none"/><rect x="808.361" y="3566.703" width="479.579" height="36.297" fill="#F1F1F1" style="stroke:#181818;stroke-width:1.5;" rx="12.5" ry="12.5"/><text x="818.361" y="3589.698" fill="#000" font-size="14" textLength="459.579">ゲームエコノミー運営担当（Game Economy Operations Specialist）</text><path d="M758.361,3584.852 L768.361,3584.852 C783.361,3584.852 783.361,3584.852 798.361,3584.852 L808.361,3584.852" style="stroke:#181818;stroke-width:1;" fill="none"/><rect x="808.361" y="3623" width="362.842" height="36.297" fill="#F1F1F1" style="stroke:#181818;stroke-width:1.5;" rx="12.5" ry="12.5"/><text x="818.361" y="3645.995" fill="#000" font-size="14" textLength="342.842">コミュニティマネージャー（Community Manager）</text><path d="M758.361,3584.852 L768.361,3584.852 C783.361,3584.852 783.361,3641.148 798.361,3641.148 L808.361,3641.148" style="stroke:#181818;stroke-width:1;" fill="none"/><rect x="808.361" y="3679.297" width="401.362" height="36.297" fill="#F1F1F1" style="stroke:#181818;stroke-width:1.5;" rx="12.5" ry="12.5"/><text x="818.361" y="3702.292" fill="#000" font-size="14" textLength="381.362">カスタマーサポート担当（Customer Support Specialist）</text><path d="M758.361,3584.852 L768.361,3584.852 C783.361,3584.852 783.361,3697.445 798.361,3697.445 L808.361,3697.445" style="stroke:#181818;stroke-width:1;" fill="none"/><rect x="808.361" y="3735.594" width="279.403" height="36.297" fill="#F1F1F1" style="stroke:#181818;stroke-width:1.5;" rx="12.5" ry="12.5"/><text x="818.361" y="3758.589" fill="#000" font-size="14" textLength="259.403">運営アナリスト（Operations Analyst）</text><path d="M758.361,3584.852 L768.361,3584.852 C783.361,3584.852 783.361,3753.742 798.361,3753.742 L808.361,3753.742" style="stroke:#181818;stroke-width:1;" fill="none"/><path d="M240.731,2346.32 L250.731,2346.32 C265.731,2346.32 265.731,3584.852 280.731,3584.852 L290.731,3584.852" style="stroke:#181818;stroke-width:1;" fill="none"/><rect x="290.731" y="4017.078" width="422.54" height="36.297" fill="#F1F1F1" style="stroke:#181818;stroke-width:1.5;" rx="12.5" ry="12.5"/><text x="300.731" y="4040.073" fill="#000" font-size="14" textLength="402.54">12. マーケティング・ビジネス部門（Marketing &amp; Business）</text><rect x="763.271" y="3791.891" width="315.838" height="36.297" fill="#F1F1F1" style="stroke:#181818;stroke-width:1.5;" rx="12.5" ry="12.5"/><text x="773.271" y="3814.886" fill="#000" font-size="14" textLength="295.838">マーケティング担当（Marketing Specialist）</text><path d="M713.271,4035.227 L723.271,4035.227 C738.271,4035.227 738.271,3810.039 753.271,3810.039 L763.271,3810.039" style="stroke:#181818;stroke-width:1;" fill="none"/><rect x="763.271" y="3848.188" width="414.85" height="36.297" fill="#F1F1F1" style="stroke:#181818;stroke-width:1.5;" rx="12.5" ry="12.5"/><text x="773.271" y="3871.183" fill="#000" font-size="14" textLength="394.85">ユーザーアクイジション担当（User Acquisition Specialist）</text><path d="M713.271,4035.227 L723.271,4035.227 C738.271,4035.227 738.271,3866.336 753.271,3866.336 L763.271,3866.336" style="stroke:#181818;stroke-width:1;" fill="none"/><rect x="763.271" y="3904.484" width="291.653" height="36.297" fill="#F1F1F1" style="stroke:#181818;stroke-width:1.5;" rx="12.5" ry="12.5"/><text x="773.271" y="3927.479" fill="#000" font-size="14" textLength="271.653">SEO・ASO担当（SEO / ASO Specialist）</text><path d="M713.271,4035.227 L723.271,4035.227 C738.271,4035.227 738.271,3922.633 753.271,3922.633 L763.271,3922.633" style="stroke:#181818;stroke-width:1;" fill="none"/><rect x="763.271" y="3960.781" width="318.785" height="36.297" fill="#F1F1F1" style="stroke:#181818;stroke-width:1.5;" rx="12.5" ry="12.5"/><text x="773.271" y="3983.776" fill="#000" font-size="14" textLength="298.785">PR・広報担当（Public Relations Specialist）</text><path d="M713.271,4035.227 L723.271,4035.227 C738.271,4035.227 738.271,3978.93 753.271,3978.93 L763.271,3978.93" style="stroke:#181818;stroke-width:1;" fill="none"/><rect x="763.271" y="4017.078" width="240.828" height="36.297" fill="#F1F1F1" style="stroke:#181818;stroke-width:1.5;" rx="12.5" ry="12.5"/><text x="773.271" y="4040.073" fill="#000" font-size="14" textLength="220.828">セールス担当（Sales Specialist）</text><path d="M713.271,4035.227 L723.271,4035.227 C738.271,4035.227 738.271,4035.227 753.271,4035.227 L763.271,4035.227" style="stroke:#181818;stroke-width:1;" fill="none"/><rect x="763.271" y="4073.375" width="475.997" height="36.297" fill="#F1F1F1" style="stroke:#181818;stroke-width:1.5;" rx="12.5" ry="12.5"/><text x="773.271" y="4096.37" fill="#000" font-size="14" textLength="455.997">ビジネスデベロップメント担当（Business Development Specialist）</text><path d="M713.271,4035.227 L723.271,4035.227 C738.271,4035.227 738.271,4091.523 753.271,4091.523 L763.271,4091.523" style="stroke:#181818;stroke-width:1;" fill="none"/><rect x="763.271" y="4129.672" width="347.311" height="36.297" fill="#F1F1F1" style="stroke:#181818;stroke-width:1.5;" rx="12.5" ry="12.5"/><text x="773.271" y="4152.667" fill="#000" font-size="14" textLength="327.311">パートナーシップ担当（Partnerships Specialist）</text><path d="M713.271,4035.227 L723.271,4035.227 C738.271,4035.227 738.271,4147.82 753.271,4147.82 L763.271,4147.82" style="stroke:#181818;stroke-width:1;" fill="none"/><rect x="763.271" y="4185.969" width="307.82" height="36.297" fill="#F1F1F1" style="stroke:#181818;stroke-width:1.5;" rx="12.5" ry="12.5"/><text x="773.271" y="4208.964" fill="#000" font-size="14" textLength="287.82">マネタイズ担当（Monetization Specialist）</text><path d="M713.271,4035.227 L723.271,4035.227 C738.271,4035.227 738.271,4204.117 753.271,4204.117 L763.271,4204.117" style="stroke:#181818;stroke-width:1;" fill="none"/><rect x="763.271" y="4242.266" width="342.71" height="36.297" fill="#F1F1F1" style="stroke:#181818;stroke-width:1.5;" rx="12.5" ry="12.5"/><text x="773.271" y="4265.261" fill="#000" font-size="14" textLength="322.71">マーケティングアナリスト（Marketing Analyst）</text><path d="M713.271,4035.227 L723.271,4035.227 C738.271,4035.227 738.271,4260.414 753.271,4260.414 L763.271,4260.414" style="stroke:#181818;stroke-width:1;" fill="none"/><path d="M240.731,2346.32 L250.731,2346.32 C265.731,2346.32 265.731,4035.227 280.731,4035.227 L290.731,4035.227" style="stroke:#181818;stroke-width:1;" fill="none"/><rect x="290.731" y="4467.453" width="378.045" height="36.297" fill="#F1F1F1" style="stroke:#181818;stroke-width:1.5;" rx="12.5" ry="12.5"/><text x="300.731" y="4490.448" fill="#000" font-size="14" textLength="358.045">13. 外部専門家部門（External Expert Management）</text><rect x="718.776" y="4298.563" width="351.331" height="36.297" fill="#F1F1F1" style="stroke:#181818;stroke-width:1.5;" rx="12.5" ry="12.5"/><text x="728.776" y="4321.558" fill="#000" font-size="14" textLength="331.331">外部専門家管理（External Expert Management）</text><path d="M668.776,4485.602 L678.776,4485.602 C693.776,4485.602 693.776,4316.711 708.776,4316.711 L718.776,4316.711" style="stroke:#181818;stroke-width:1;" fill="none"/><rect x="718.776" y="4354.859" width="206.094" height="36.297" fill="#F1F1F1" style="stroke:#181818;stroke-width:1.5;" rx="12.5" ry="12.5"/><text x="728.776" y="4377.854" fill="#000" font-size="14" textLength="186.094">法務専門家（Legal Expert）</text><path d="M668.776,4485.602 L678.776,4485.602 C693.776,4485.602 693.776,4373.008 708.776,4373.008 L718.776,4373.008" style="stroke:#181818;stroke-width:1;" fill="none"/><rect x="718.776" y="4411.156" width="221.961" height="36.297" fill="#F1F1F1" style="stroke:#181818;stroke-width:1.5;" rx="12.5" ry="12.5"/><text x="728.776" y="4434.151" fill="#000" font-size="14" textLength="201.961">医療専門家（Medical Expert）</text><path d="M668.776,4485.602 L678.776,4485.602 C693.776,4485.602 693.776,4429.305 708.776,4429.305 L718.776,4429.305" style="stroke:#181818;stroke-width:1;" fill="none"/><rect x="718.776" y="4467.453" width="227.662" height="36.297" fill="#F1F1F1" style="stroke:#181818;stroke-width:1.5;" rx="12.5" ry="12.5"/><text x="728.776" y="4490.448" fill="#000" font-size="14" textLength="207.662">野球専門家（Baseball Expert）</text><path d="M668.776,4485.602 L678.776,4485.602 C693.776,4485.602 693.776,4485.602 708.776,4485.602 L718.776,4485.602" style="stroke:#181818;stroke-width:1;" fill="none"/><rect x="718.776" y="4523.75" width="290.962" height="36.297" fill="#F1F1F1" style="stroke:#181818;stroke-width:1.5;" rx="12.5" ry="12.5"/><text x="728.776" y="4546.745" fill="#000" font-size="14" textLength="270.962">自動車競技専門家（Auto racing Expert）</text><path d="M668.776,4485.602 L678.776,4485.602 C693.776,4485.602 693.776,4541.898 708.776,4541.898 L718.776,4541.898" style="stroke:#181818;stroke-width:1;" fill="none"/><rect x="718.776" y="4580.047" width="261.896" height="36.297" fill="#F1F1F1" style="stroke:#181818;stroke-width:1.5;" rx="12.5" ry="12.5"/><text x="728.776" y="4603.042" fill="#000" font-size="14" textLength="241.896">不動産専門家（Real Estate Expert）</text><path d="M668.776,4485.602 L678.776,4485.602 C693.776,4485.602 693.776,4598.195 708.776,4598.195 L718.776,4598.195" style="stroke:#181818;stroke-width:1;" fill="none"/><rect x="718.776" y="4636.344" width="232.502" height="36.297" fill="#F1F1F1" style="stroke:#181818;stroke-width:1.5;" rx="12.5" ry="12.5"/><text x="728.776" y="4659.339" fill="#000" font-size="14" textLength="212.502">家具専門家（Furniture Expert）</text><path d="M668.776,4485.602 L678.776,4485.602 C693.776,4485.602 693.776,4654.492 708.776,4654.492 L718.776,4654.492" style="stroke:#181818;stroke-width:1;" fill="none"/><path d="M240.731,2346.32 L250.731,2346.32 C265.731,2346.32 265.731,4485.602 280.731,4485.602 L290.731,4485.602" style="stroke:#181818;stroke-width:1;" fill="none"/><?plantuml-src hLXRKzH857xtL-J91wkM5TrrtJT7BYvL8CY8nMiJ6iYQIMOx2Ilx18a2Whgi2XPMUU7Y1H11AG6PMVqn8Gmy-HVsT6VIwQGRzM6hgAdCSBxJfy_vpYqN71SHjsHO_ILKFd7Yb1RwxyEW6WRFzwkFQykVlbGdBw4IrfhiKXbP8r-gjq7eb7QwiK6hVRWJpMs7GINqjnZaIHYyOG-JHy7hexbHm3RPf6mJv6Aj0rbe49UmvL8Tfq17ZD-lZjKULZAYNIQoBCCQJ0GFjcQZwVda8FXx50OheRyS-elqg_yHqEru49dQIMQdQI1BnmdwyFr2Z8OB7RwU1DbMmw8285tGTTkpNE6i_Rsz_Rrf4FhDAo5BwyQExH4TEzpedRz16_KAjZ218mi30yWWwV-NFqNZjzgkPYv4lzRzTgP1O_QlXy5ew6-8lkeYTh-dS_VanCBWQHZSfUxrTyDW2HvIIDsvv5ZeHEWlqU30L_zp5jfi4AoxDk4MdkKMma7-grX5xUr2RMPSDFLtpCyLWof3ZpDSK42-WgvpAxv1hEPpLaUJRPD-2AbuYPyQH29JXb7wK2tRb3Z15hyAOtSpTen1YrkH80N0L7oc82rOxUy02SDWN0afZZWkBiaWcYj0opKPqOw7iQa0p31lAW0NaUkQAhjUC_VT2uDdYHCpk1RTjkpIYEAeAPfXS27gz3aPU1aH8BOnh3YJWY1mqw6_fhJrAjQ7B4D7sGkoeFrCWxOOLn08Lqyl3rA1k92jFRtfpRYOWjfKMgHrZ62bmwymYaqc2jWDQUmcMS92LIYx6k0D9sMqlyvekyAFK8E7446wYqaENhk_6Iq6IaYBDMmGswBfap-JaqE5Y_cHHVIqAKLxsl9olN98UdeLr5caCGmMn8GhM4O92JwzrjghF1H-b-wJPOKAbH8ZnJ9QdAEqsCYKVAYQSzEr-RsqpvW6zMABDMXO61EXe0l9_8ZnP9cc1QN2BhDdiPxLPHEDSBperRmmk3Gl5lgRB5zc6HS3HfIFYcC8AWyPkgF0hwP53fubPC7hDsmP5jnai3KPSDMsJSKvmJ_Co1K6UnetJndSXSc0JKgiHyegMFE5IzBauxgUAxIOoALgj3RBnOEqNDXMHXqBxYz2eGxz3-nXXdrMs4FiJAOxk9qjsaLCXY7TJceNaNuTM_ron4Lzog0dEkHRve-MyVLJ5TY996dcsOF2myt8HNt8mR8_pbD_BBCpPvcZAyTvd3kZpHeWo749T7EFqAacyNpg446XP4iEBdCpJhsNIYSqcRQdSi7TnDuDve8D6NaPkt_QvBg4RSR3dML7uJBskoHUx6wHPOi635tT6ER0FiCqt97_WyLIf7vj44DTARJnWD3eqk6oJQQ4aWbVeH0jTr2bLtcLPF852vaZOdNbuX_I-fQjhWnNr6cL5EhomSgpWyNDQFrbxVDzsROEf0-1NLexHeJEuvAT1KLvBCZbiQFz-_tTqQufNIwxfSeQSznNKiyGCDd5wHGD9bBlnOLWZC-VO2MCzd0lVKYf_msh05D9XGGdFgPJ7eNdOd79XW8IxnF5CjODP0gzg_5qWtQbm3QN2ZFt1SMpo72sN2a0LufOzmWmDJ45G99hG53so7XipU74QZGz6zsPKxG2xC1uuRbsIIx1L4VqOEnmQrLcsXKFiTp9aqswYIB_whUHpZgyEHvLtnsClehtYUCSUyqpwN9LJzvqoSXvc0ygMooqO_MHKAOaSFw7fY6CNCcW_Tsx1-jBqSQdslhSSTQq4WGrhel0r6Kn3ogiu2ifq8OgKFIRBc8C8tr4AYIDZK8BF1gRJdRgDSQypwnFLxEThxECutxgq8tNSo2sOi7Ew3gOlXNz-q21LDqYli9SaYyFm8ISbdOwzDEkQUZVqaPLpSVJch2xZxFFcpcrBTItR7s7OG6Ulg7vVLe-X0L7TU5anVc6mYscuGMRUUEjHx6qDjcbacUbb1HSdWaMSz-Jc8tScYHCMj4hbssYud8z-58c2hOBoSYumrudn6U-IopVOkDeXOLlbzu2WfZGfmEHwvY-xw1Za-S04Hqd3Rz24RS_HQg8yv8Xj-lB4UttosoBXrHu1OgubXw7BaZw7vxX6CVaKh6baxRJOYS7mI_QZnhyef3kwWRXQ2-8dh_ZybrUdsdeT03uIiGhoUZyCJq7cLYT5wadMO-OPszN0fRr2p73kPB4gtIGmQPTFgvkqL4ytc2dcDTsOeNf9H1neGWwGqPPRHCZAErLuEczD4os1L7w2nrRg5HaaHYN1ZjFkBCDMhGy1toADdsWLFHsctEhvOPBEw6fjTm0mgfU3kMGSHFuBcJy2f0Z-Gk_6C3rtwdKvdrHgWFtivKoAtSqSQys4uXo5s4OxqDcNZ1kguULgThQzi7Kg8YW7LM3ZP_DHHaGz1G0rHukYUBTc5hXkFHrOCxejzlHhHrHjjM3SIiUnhdaYGkmQ_3Nj8qDPqwVETTmlW-xgF4_?></g></svg>